<?xml version="1.0" standalone="no"?>
<svg viewBox="0 0 200 200" xmlns="http://www.w3.org/2000/svg">
  <path fill="#1FC5A8" d="M28.5,-36.8C37.2,-32.9,44.6,-24.9,55.1,-13.1C65.6,-1.3,79.1,14.4,78.4,28.2C77.6,42,62.7,53.8,47.2,56.9C31.8,60.1,15.9,54.4,-1.2,56.2C-18.4,57.9,-36.8,66.9,-42.9,60.8C-49.1,54.6,-43,33.3,-45.8,16.8C-48.6,0.2,-60.2,-11.5,-62.1,-24.6C-64,-37.8,-56.2,-52.2,-44.2,-55C-32.3,-57.9,-16.1,-49.2,-3.1,-44.9C9.9,-40.6,19.8,-40.7,28.5,-36.8Z" transform="translate(100 100)" />
</svg>
